<mxfile host="app.diagrams.net" modified="2024-06-03T13:04:18.802Z" agent="Mozilla/5.0 (Windows NT 10.0; Win64; x64) AppleWebKit/537.36 (KHTML, like Gecko) Chrome/125.0.0.0 Safari/537.36" etag="Wmf5YRVQoIRkqaU_YUGt" version="24.4.13" type="google">
  <diagram name="Page-1" id="dL7h987vzW68kTxpzzoT">
    <mxGraphModel dx="1222" dy="686" grid="1" gridSize="10" guides="1" tooltips="1" connect="1" arrows="1" fold="1" page="1" pageScale="1" pageWidth="850" pageHeight="1100" math="0" shadow="0">
      <root>
        <mxCell id="0" />
        <mxCell id="1" parent="0" />
        <mxCell id="0Ssv8ot3Nsiwxkiini0J-2" value="Board" style="swimlane;fontStyle=1;align=center;verticalAlign=top;childLayout=stackLayout;horizontal=1;startSize=26;horizontalStack=0;resizeParent=1;resizeParentMax=0;resizeLast=0;collapsible=1;marginBottom=0;whiteSpace=wrap;html=1;" vertex="1" parent="1">
          <mxGeometry x="650" y="280" width="160" height="150" as="geometry" />
        </mxCell>
        <mxCell id="0Ssv8ot3Nsiwxkiini0J-3" value="+ board: List[lList[Square]]&lt;div&gt;&lt;br&gt;&lt;/div&gt;" style="text;strokeColor=none;fillColor=none;align=left;verticalAlign=top;spacingLeft=4;spacingRight=4;overflow=hidden;rotatable=0;points=[[0,0.5],[1,0.5]];portConstraint=eastwest;whiteSpace=wrap;html=1;" vertex="1" parent="0Ssv8ot3Nsiwxkiini0J-2">
          <mxGeometry y="26" width="160" height="44" as="geometry" />
        </mxCell>
        <mxCell id="0Ssv8ot3Nsiwxkiini0J-4" value="" style="line;strokeWidth=1;fillColor=none;align=left;verticalAlign=middle;spacingTop=-1;spacingLeft=3;spacingRight=3;rotatable=0;labelPosition=right;points=[];portConstraint=eastwest;strokeColor=inherit;" vertex="1" parent="0Ssv8ot3Nsiwxkiini0J-2">
          <mxGeometry y="70" width="160" height="8" as="geometry" />
        </mxCell>
        <mxCell id="0Ssv8ot3Nsiwxkiini0J-5" value="&lt;div&gt;+setup_board()&lt;/div&gt;+ calc_moves()&amp;nbsp;&lt;div&gt;&lt;span style=&quot;background-color: initial;&quot;&gt;+ calc_valid_moves():&lt;/span&gt;&lt;/div&gt;&lt;div&gt;&lt;span style=&quot;background-color: initial;&quot;&gt;+check_promotion&lt;/span&gt;&lt;/div&gt;" style="text;strokeColor=none;fillColor=none;align=left;verticalAlign=top;spacingLeft=4;spacingRight=4;overflow=hidden;rotatable=0;points=[[0,0.5],[1,0.5]];portConstraint=eastwest;whiteSpace=wrap;html=1;" vertex="1" parent="0Ssv8ot3Nsiwxkiini0J-2">
          <mxGeometry y="78" width="160" height="72" as="geometry" />
        </mxCell>
        <mxCell id="0Ssv8ot3Nsiwxkiini0J-49" value="" style="endArrow=diamondThin;endFill=0;endSize=24;html=1;rounded=0;" edge="1" parent="0Ssv8ot3Nsiwxkiini0J-2" source="0Ssv8ot3Nsiwxkiini0J-6">
          <mxGeometry width="160" relative="1" as="geometry">
            <mxPoint x="130" y="130" as="sourcePoint" />
            <mxPoint x="290" y="130" as="targetPoint" />
          </mxGeometry>
        </mxCell>
        <mxCell id="0Ssv8ot3Nsiwxkiini0J-6" value="Piece" style="swimlane;fontStyle=1;align=center;verticalAlign=top;childLayout=stackLayout;horizontal=1;startSize=26;horizontalStack=0;resizeParent=1;resizeParentMax=0;resizeLast=0;collapsible=1;marginBottom=0;whiteSpace=wrap;html=1;" vertex="1" parent="1">
          <mxGeometry x="810" y="470" width="240" height="180" as="geometry" />
        </mxCell>
        <mxCell id="0Ssv8ot3Nsiwxkiini0J-7" value="- name: string&lt;div&gt;&lt;br&gt;-color: ENUM&lt;/div&gt;&lt;div&gt;&lt;br&gt;&lt;/div&gt;&lt;div&gt;- Position: Tuple(int)&lt;/div&gt;" style="text;strokeColor=none;fillColor=none;align=left;verticalAlign=top;spacingLeft=4;spacingRight=4;overflow=hidden;rotatable=0;points=[[0,0.5],[1,0.5]];portConstraint=eastwest;whiteSpace=wrap;html=1;" vertex="1" parent="0Ssv8ot3Nsiwxkiini0J-6">
          <mxGeometry y="26" width="240" height="104" as="geometry" />
        </mxCell>
        <mxCell id="0Ssv8ot3Nsiwxkiini0J-8" value="" style="line;strokeWidth=1;fillColor=none;align=left;verticalAlign=middle;spacingTop=-1;spacingLeft=3;spacingRight=3;rotatable=0;labelPosition=right;points=[];portConstraint=eastwest;strokeColor=inherit;" vertex="1" parent="0Ssv8ot3Nsiwxkiini0J-6">
          <mxGeometry y="130" width="240" height="8" as="geometry" />
        </mxCell>
        <mxCell id="0Ssv8ot3Nsiwxkiini0J-9" value="+ calc_all_moves(): List[Tuple]&lt;div&gt;+move()&lt;/div&gt;" style="text;strokeColor=none;fillColor=none;align=left;verticalAlign=top;spacingLeft=4;spacingRight=4;overflow=hidden;rotatable=0;points=[[0,0.5],[1,0.5]];portConstraint=eastwest;whiteSpace=wrap;html=1;" vertex="1" parent="0Ssv8ot3Nsiwxkiini0J-6">
          <mxGeometry y="138" width="240" height="42" as="geometry" />
        </mxCell>
        <mxCell id="0Ssv8ot3Nsiwxkiini0J-10" value="Game" style="swimlane;fontStyle=1;align=center;verticalAlign=top;childLayout=stackLayout;horizontal=1;startSize=26;horizontalStack=0;resizeParent=1;resizeParentMax=0;resizeLast=0;collapsible=1;marginBottom=0;whiteSpace=wrap;html=1;" vertex="1" parent="1">
          <mxGeometry x="425" y="328" width="160" height="100" as="geometry" />
        </mxCell>
        <mxCell id="0Ssv8ot3Nsiwxkiini0J-11" value="+ Board" style="text;strokeColor=none;fillColor=none;align=left;verticalAlign=top;spacingLeft=4;spacingRight=4;overflow=hidden;rotatable=0;points=[[0,0.5],[1,0.5]];portConstraint=eastwest;whiteSpace=wrap;html=1;" vertex="1" parent="0Ssv8ot3Nsiwxkiini0J-10">
          <mxGeometry y="26" width="160" height="18" as="geometry" />
        </mxCell>
        <mxCell id="0Ssv8ot3Nsiwxkiini0J-12" value="" style="line;strokeWidth=1;fillColor=none;align=left;verticalAlign=middle;spacingTop=-1;spacingLeft=3;spacingRight=3;rotatable=0;labelPosition=right;points=[];portConstraint=eastwest;strokeColor=inherit;" vertex="1" parent="0Ssv8ot3Nsiwxkiini0J-10">
          <mxGeometry y="44" width="160" height="8" as="geometry" />
        </mxCell>
        <mxCell id="0Ssv8ot3Nsiwxkiini0J-13" value="+ check_if_checkmate()&lt;div&gt;+show_board()&lt;/div&gt;" style="text;strokeColor=none;fillColor=none;align=left;verticalAlign=top;spacingLeft=4;spacingRight=4;overflow=hidden;rotatable=0;points=[[0,0.5],[1,0.5]];portConstraint=eastwest;whiteSpace=wrap;html=1;" vertex="1" parent="0Ssv8ot3Nsiwxkiini0J-10">
          <mxGeometry y="52" width="160" height="48" as="geometry" />
        </mxCell>
        <mxCell id="0Ssv8ot3Nsiwxkiini0J-14" value="Square" style="swimlane;fontStyle=1;align=center;verticalAlign=top;childLayout=stackLayout;horizontal=1;startSize=26;horizontalStack=0;resizeParent=1;resizeParentMax=0;resizeLast=0;collapsible=1;marginBottom=0;whiteSpace=wrap;html=1;" vertex="1" parent="1">
          <mxGeometry x="870" y="260" width="160" height="144" as="geometry" />
        </mxCell>
        <mxCell id="0Ssv8ot3Nsiwxkiini0J-15" value="-row: int&lt;div&gt;- col: int&lt;/div&gt;" style="text;strokeColor=none;fillColor=none;align=left;verticalAlign=top;spacingLeft=4;spacingRight=4;overflow=hidden;rotatable=0;points=[[0,0.5],[1,0.5]];portConstraint=eastwest;whiteSpace=wrap;html=1;" vertex="1" parent="0Ssv8ot3Nsiwxkiini0J-14">
          <mxGeometry y="26" width="160" height="54" as="geometry" />
        </mxCell>
        <mxCell id="0Ssv8ot3Nsiwxkiini0J-16" value="" style="line;strokeWidth=1;fillColor=none;align=left;verticalAlign=middle;spacingTop=-1;spacingLeft=3;spacingRight=3;rotatable=0;labelPosition=right;points=[];portConstraint=eastwest;strokeColor=inherit;" vertex="1" parent="0Ssv8ot3Nsiwxkiini0J-14">
          <mxGeometry y="80" width="160" height="8" as="geometry" />
        </mxCell>
        <mxCell id="0Ssv8ot3Nsiwxkiini0J-17" value="+ isEmpty()&lt;div&gt;+has_enemy_piece()&lt;/div&gt;&lt;div&gt;+get_piece()&lt;/div&gt;" style="text;strokeColor=none;fillColor=none;align=left;verticalAlign=top;spacingLeft=4;spacingRight=4;overflow=hidden;rotatable=0;points=[[0,0.5],[1,0.5]];portConstraint=eastwest;whiteSpace=wrap;html=1;" vertex="1" parent="0Ssv8ot3Nsiwxkiini0J-14">
          <mxGeometry y="88" width="160" height="56" as="geometry" />
        </mxCell>
        <mxCell id="0Ssv8ot3Nsiwxkiini0J-22" value="" style="endArrow=classic;html=1;rounded=0;entryX=0.122;entryY=1.063;entryDx=0;entryDy=0;entryPerimeter=0;" edge="1" parent="1" target="0Ssv8ot3Nsiwxkiini0J-9">
          <mxGeometry width="50" height="50" relative="1" as="geometry">
            <mxPoint x="740" y="770" as="sourcePoint" />
            <mxPoint x="790" y="720" as="targetPoint" />
          </mxGeometry>
        </mxCell>
        <mxCell id="0Ssv8ot3Nsiwxkiini0J-23" value="Knight" style="swimlane;fontStyle=1;align=center;verticalAlign=top;childLayout=stackLayout;horizontal=1;startSize=26;horizontalStack=0;resizeParent=1;resizeParentMax=0;resizeLast=0;collapsible=1;marginBottom=0;whiteSpace=wrap;html=1;" vertex="1" parent="1">
          <mxGeometry x="830" y="770" width="90" height="34" as="geometry" />
        </mxCell>
        <mxCell id="0Ssv8ot3Nsiwxkiini0J-24" value="" style="line;strokeWidth=1;fillColor=none;align=left;verticalAlign=middle;spacingTop=-1;spacingLeft=3;spacingRight=3;rotatable=0;labelPosition=right;points=[];portConstraint=eastwest;strokeColor=inherit;" vertex="1" parent="0Ssv8ot3Nsiwxkiini0J-23">
          <mxGeometry y="26" width="90" height="8" as="geometry" />
        </mxCell>
        <mxCell id="0Ssv8ot3Nsiwxkiini0J-27" value="Pawn" style="swimlane;fontStyle=1;align=center;verticalAlign=top;childLayout=stackLayout;horizontal=1;startSize=26;horizontalStack=0;resizeParent=1;resizeParentMax=0;resizeLast=0;collapsible=1;marginBottom=0;whiteSpace=wrap;html=1;" vertex="1" parent="1">
          <mxGeometry x="930" y="770" width="90" height="34" as="geometry" />
        </mxCell>
        <mxCell id="0Ssv8ot3Nsiwxkiini0J-28" value="" style="line;strokeWidth=1;fillColor=none;align=left;verticalAlign=middle;spacingTop=-1;spacingLeft=3;spacingRight=3;rotatable=0;labelPosition=right;points=[];portConstraint=eastwest;strokeColor=inherit;" vertex="1" parent="0Ssv8ot3Nsiwxkiini0J-27">
          <mxGeometry y="26" width="90" height="8" as="geometry" />
        </mxCell>
        <mxCell id="0Ssv8ot3Nsiwxkiini0J-31" value="Queen" style="swimlane;fontStyle=1;align=center;verticalAlign=top;childLayout=stackLayout;horizontal=1;startSize=26;horizontalStack=0;resizeParent=1;resizeParentMax=0;resizeLast=0;collapsible=1;marginBottom=0;whiteSpace=wrap;html=1;" vertex="1" parent="1">
          <mxGeometry x="1130" y="770" width="90" height="34" as="geometry" />
        </mxCell>
        <mxCell id="0Ssv8ot3Nsiwxkiini0J-32" value="" style="line;strokeWidth=1;fillColor=none;align=left;verticalAlign=middle;spacingTop=-1;spacingLeft=3;spacingRight=3;rotatable=0;labelPosition=right;points=[];portConstraint=eastwest;strokeColor=inherit;" vertex="1" parent="0Ssv8ot3Nsiwxkiini0J-31">
          <mxGeometry y="26" width="90" height="8" as="geometry" />
        </mxCell>
        <mxCell id="0Ssv8ot3Nsiwxkiini0J-33" value="Bioshop" style="swimlane;fontStyle=1;align=center;verticalAlign=top;childLayout=stackLayout;horizontal=1;startSize=26;horizontalStack=0;resizeParent=1;resizeParentMax=0;resizeLast=0;collapsible=1;marginBottom=0;whiteSpace=wrap;html=1;" vertex="1" parent="1">
          <mxGeometry x="1230" y="770" width="90" height="34" as="geometry" />
        </mxCell>
        <mxCell id="0Ssv8ot3Nsiwxkiini0J-34" value="" style="line;strokeWidth=1;fillColor=none;align=left;verticalAlign=middle;spacingTop=-1;spacingLeft=3;spacingRight=3;rotatable=0;labelPosition=right;points=[];portConstraint=eastwest;strokeColor=inherit;" vertex="1" parent="0Ssv8ot3Nsiwxkiini0J-33">
          <mxGeometry y="26" width="90" height="8" as="geometry" />
        </mxCell>
        <mxCell id="0Ssv8ot3Nsiwxkiini0J-35" value="King" style="swimlane;fontStyle=1;align=center;verticalAlign=top;childLayout=stackLayout;horizontal=1;startSize=30;horizontalStack=0;resizeParent=1;resizeParentMax=0;resizeLast=0;collapsible=1;marginBottom=0;whiteSpace=wrap;html=1;" vertex="1" parent="1">
          <mxGeometry x="650" y="770" width="160" height="62" as="geometry" />
        </mxCell>
        <mxCell id="0Ssv8ot3Nsiwxkiini0J-37" value="" style="line;strokeWidth=1;fillColor=none;align=left;verticalAlign=middle;spacingTop=-1;spacingLeft=3;spacingRight=3;rotatable=0;labelPosition=right;points=[];portConstraint=eastwest;strokeColor=inherit;" vertex="1" parent="0Ssv8ot3Nsiwxkiini0J-35">
          <mxGeometry y="30" width="160" height="6" as="geometry" />
        </mxCell>
        <mxCell id="0Ssv8ot3Nsiwxkiini0J-38" value="swap_with_rook()" style="text;strokeColor=none;fillColor=none;align=left;verticalAlign=top;spacingLeft=4;spacingRight=4;overflow=hidden;rotatable=0;points=[[0,0.5],[1,0.5]];portConstraint=eastwest;whiteSpace=wrap;html=1;" vertex="1" parent="0Ssv8ot3Nsiwxkiini0J-35">
          <mxGeometry y="36" width="160" height="26" as="geometry" />
        </mxCell>
        <mxCell id="0Ssv8ot3Nsiwxkiini0J-39" value="Rook" style="swimlane;fontStyle=1;align=center;verticalAlign=top;childLayout=stackLayout;horizontal=1;startSize=30;horizontalStack=0;resizeParent=1;resizeParentMax=0;resizeLast=0;collapsible=1;marginBottom=0;whiteSpace=wrap;html=1;" vertex="1" parent="1">
          <mxGeometry x="1000" y="820" width="160" height="62" as="geometry" />
        </mxCell>
        <mxCell id="0Ssv8ot3Nsiwxkiini0J-40" value="" style="line;strokeWidth=1;fillColor=none;align=left;verticalAlign=middle;spacingTop=-1;spacingLeft=3;spacingRight=3;rotatable=0;labelPosition=right;points=[];portConstraint=eastwest;strokeColor=inherit;" vertex="1" parent="0Ssv8ot3Nsiwxkiini0J-39">
          <mxGeometry y="30" width="160" height="6" as="geometry" />
        </mxCell>
        <mxCell id="0Ssv8ot3Nsiwxkiini0J-41" value="swap_with_king()" style="text;strokeColor=none;fillColor=none;align=left;verticalAlign=top;spacingLeft=4;spacingRight=4;overflow=hidden;rotatable=0;points=[[0,0.5],[1,0.5]];portConstraint=eastwest;whiteSpace=wrap;html=1;" vertex="1" parent="0Ssv8ot3Nsiwxkiini0J-39">
          <mxGeometry y="36" width="160" height="26" as="geometry" />
        </mxCell>
        <mxCell id="0Ssv8ot3Nsiwxkiini0J-42" value="" style="endArrow=classic;html=1;rounded=0;entryX=0.297;entryY=0.984;entryDx=0;entryDy=0;entryPerimeter=0;" edge="1" parent="1" target="0Ssv8ot3Nsiwxkiini0J-9">
          <mxGeometry width="50" height="50" relative="1" as="geometry">
            <mxPoint x="860" y="770" as="sourcePoint" />
            <mxPoint x="910" y="720" as="targetPoint" />
          </mxGeometry>
        </mxCell>
        <mxCell id="0Ssv8ot3Nsiwxkiini0J-43" value="" style="endArrow=classic;html=1;rounded=0;" edge="1" parent="1" target="0Ssv8ot3Nsiwxkiini0J-9">
          <mxGeometry width="50" height="50" relative="1" as="geometry">
            <mxPoint x="960" y="770" as="sourcePoint" />
            <mxPoint x="1010" y="720" as="targetPoint" />
          </mxGeometry>
        </mxCell>
        <mxCell id="0Ssv8ot3Nsiwxkiini0J-44" value="" style="endArrow=classic;html=1;rounded=0;entryX=0.936;entryY=1.048;entryDx=0;entryDy=0;entryPerimeter=0;" edge="1" parent="1" target="0Ssv8ot3Nsiwxkiini0J-9">
          <mxGeometry width="50" height="50" relative="1" as="geometry">
            <mxPoint x="1210" y="770" as="sourcePoint" />
            <mxPoint x="1260" y="720" as="targetPoint" />
          </mxGeometry>
        </mxCell>
        <mxCell id="0Ssv8ot3Nsiwxkiini0J-45" value="" style="endArrow=classic;html=1;rounded=0;entryX=0.761;entryY=1.016;entryDx=0;entryDy=0;entryPerimeter=0;" edge="1" parent="1" target="0Ssv8ot3Nsiwxkiini0J-9">
          <mxGeometry width="50" height="50" relative="1" as="geometry">
            <mxPoint x="1070" y="820" as="sourcePoint" />
            <mxPoint x="1120" y="770" as="targetPoint" />
          </mxGeometry>
        </mxCell>
        <mxCell id="0Ssv8ot3Nsiwxkiini0J-46" value="" style="endArrow=classic;html=1;rounded=0;entryX=1;entryY=0.5;entryDx=0;entryDy=0;" edge="1" parent="1" target="0Ssv8ot3Nsiwxkiini0J-9">
          <mxGeometry width="50" height="50" relative="1" as="geometry">
            <mxPoint x="1280" y="770" as="sourcePoint" />
            <mxPoint x="1330" y="720" as="targetPoint" />
          </mxGeometry>
        </mxCell>
        <mxCell id="0Ssv8ot3Nsiwxkiini0J-47" value="" style="endArrow=diamondThin;endFill=1;endSize=24;html=1;rounded=0;entryX=1.008;entryY=1.154;entryDx=0;entryDy=0;entryPerimeter=0;exitX=0.013;exitY=1.159;exitDx=0;exitDy=0;exitPerimeter=0;" edge="1" parent="1" source="0Ssv8ot3Nsiwxkiini0J-3" target="0Ssv8ot3Nsiwxkiini0J-11">
          <mxGeometry width="160" relative="1" as="geometry">
            <mxPoint x="520" y="180" as="sourcePoint" />
            <mxPoint x="680" y="180" as="targetPoint" />
          </mxGeometry>
        </mxCell>
        <mxCell id="0Ssv8ot3Nsiwxkiini0J-48" value="" style="endArrow=diamondThin;endFill=1;endSize=24;html=1;rounded=0;entryX=1.008;entryY=1.154;entryDx=0;entryDy=0;entryPerimeter=0;exitX=0.013;exitY=1.159;exitDx=0;exitDy=0;exitPerimeter=0;" edge="1" parent="1">
          <mxGeometry width="160" relative="1" as="geometry">
            <mxPoint x="876" y="328" as="sourcePoint" />
            <mxPoint x="810" y="346" as="targetPoint" />
          </mxGeometry>
        </mxCell>
      </root>
    </mxGraphModel>
  </diagram>
</mxfile>
